<?xml version="1.0" encoding="iso-8859-1"?>
<!-- Generator: Adobe Illustrator 17.1.0, SVG Export Plug-In . SVG Version: 6.00 Build 0)  -->
<!DOCTYPE svg PUBLIC "-//W3C//DTD SVG 1.1//EN" "http://www.w3.org/Graphics/SVG/1.1/DTD/svg11.dtd">
<svg version="1.1" id="Capa_1" xmlns="http://www.w3.org/2000/svg" xmlns:xlink="http://www.w3.org/1999/xlink" x="0px" y="0px"
	 viewBox="0 0 299.467 299.467" style="enable-background:new 0 0 299.467 299.467;" xml:space="preserve">
<g>
	<path d="M173.419,116.321c0-4.143-3.358-7.5-7.5-7.5c-2.934,0-5.468,1.689-6.7,4.144c-4.378-2.628-9.497-4.144-14.964-4.144
		c-16.082,0-29.165,13.083-29.165,29.164c0,16.082,13.083,29.165,29.165,29.165c8.313,0,15.819-3.502,21.136-9.101
		c5.002,5.581,12.259,9.101,20.326,9.101h1.967c15.052,0,27.298-12.246,27.298-27.298v-0.494c0-34.912-26.625-64.105-60.616-66.461
		c-19.877-1.374-39.015,6.189-52.51,20.758c-13.493,14.566-19.561,34.308-16.649,54.161c4.238,28.898,27.5,51.492,56.567,54.944
		c2.7,0.321,5.385,0.48,8.049,0.48c12.367,0,24.259-3.434,34.783-10.1c3.5-2.217,4.539-6.85,2.323-10.35
		c-2.216-3.499-6.851-4.539-10.349-2.322c-9.846,6.236-21.271,8.793-33.037,7.396c-21.998-2.613-40.291-20.372-43.496-42.227
		c-2.25-15.339,2.42-30.571,12.813-41.791c10.395-11.222,25.153-17.053,40.469-15.986c26.16,1.813,46.652,24.433,46.652,51.496
		v0.494c0,6.781-5.517,12.298-12.298,12.298h-1.967c-6.781,0-12.298-5.517-12.298-12.298V116.321z M144.254,152.15
		c-7.811,0-14.165-6.354-14.165-14.165s6.354-14.164,14.165-14.164s14.165,6.354,14.165,14.164S152.065,152.15,144.254,152.15z"/>
	<path d="M299.467,137.985c0-70.516-67.17-127.885-149.733-127.885S0,67.47,0,137.985c0,33.458,15.004,65.09,42.248,89.066
		c26.828,23.611,62.775,37.358,101.222,38.709c4.112,0.118,7.613-3.091,7.759-7.231c0.145-4.14-3.093-7.613-7.232-7.759
		c-34.991-1.229-67.606-13.651-91.838-34.979C28.196,194.703,15,167.071,15,137.985C15,75.74,75.441,25.101,149.733,25.101
		s134.733,50.64,134.733,112.885c0,42.373-27.986,80.815-73.036,100.324c-3.407,1.476-5.222,5.222-4.268,8.81
		c2.658,10,8.025,18.557,13.494,25.215c-15.858-4.041-27.271-13.411-34.717-21.775c-2.754-3.093-7.496-3.368-10.589-0.614
		c-3.094,2.754-3.369,7.495-0.614,10.589c9.779,10.984,30.591,28.833,62.514,28.833c1.489,0,3.003-0.038,4.54-0.118
		c3.206-0.168,5.95-2.357,6.825-5.446c0.875-3.089-0.313-6.393-2.955-8.216c-0.168-0.116-15.133-10.591-21.944-26.411
		C270.622,226.44,299.467,184.382,299.467,137.985z"/>
</g>
<g>
</g>
<g>
</g>
<g>
</g>
<g>
</g>
<g>
</g>
<g>
</g>
<g>
</g>
<g>
</g>
<g>
</g>
<g>
</g>
<g>
</g>
<g>
</g>
<g>
</g>
<g>
</g>
<g>
</g>
</svg>
